<svg xmlns="http://www.w3.org/2000/svg" viewBox="0 0 256 256" role="img" aria-label="ZeroWaste Logo">
  <defs>
    <linearGradient id="g" x1="0" x2="1">
      <stop offset="0%" stop-color="#00a86b"/>
      <stop offset="100%" stop-color="#66bb6a"/>
    </linearGradient>
  </defs>
  <circle cx="128" cy="128" r="120" fill="url(#g)"/>
  <g fill="#ffffff">
    <path d="M128 48c-44 0-80 36-80 80s36 80 80 80 80-36 80-80h-24c0 31-25 56-56 56s-56-25-56-56 25-56 56-56V48z"/>
    <path d="M128 32l18 26h-36l18-26z"/>
    <path d="M224 128l-26-18v36l26-18z"/>
    <path d="M128 224l-18-26h36l-18 26z"/>
    <path d="M32 128l26 18v-36l-26 18z"/>
  </g>
  <text x="128" y="238" font-size="20" text-anchor="middle" fill="#e8f5e9">ZeroWaste</text>
</svg>


